{
    "asset" : {
        "generator" : "Khronos glTF Blender I/O v0.9.35",
        "version" : "2.0"
    },
    "scene" : 0,
    "scenes" : [
        {
            "name" : "Scene",
            "nodes" : [
                0,
                1,
                2,
                3,
                4,
                5
            ]
        }
    ],
    "nodes" : [
        {
            "name" : "Light",
            "rotation" : [
                0.16907575726509094,
                0.7558803558349609,
                -0.27217137813568115,
                0.570947527885437
            ],
            "translation" : [
                4.076245307922363,
                5.903861999511719,
                -1.0054539442062378
            ]
        },
        {
            "name" : "Camera",
            "rotation" : [
                0.6955442428588867,
                -0.004391460679471493,
                0.0015540706226602197,
                0.718468189239502
            ],
            "translation" : [
                -0.31451416015625,
                4.189761161804199,
                30.81882667541504
            ]
        },
        {
            "mesh" : 0,
            "name" : "Curve",
            "rotation" : [
                0.7069607973098755,
                0,
                0,
                0.7072526812553406
            ],
            "scale" : [
                277.86798095703125,
                277.8680114746094,
                277.8680114746094
            ],
            "translation" : [
                -6.06917667388916,
                3.57118558883667,
                -2.218059539794922
            ]
        },
        {
            "mesh" : 1,
            "name" : "Curve.001",
            "rotation" : [
                0.7069607973098755,
                0,
                0,
                0.7072526812553406
            ],
            "scale" : [
                277.86798095703125,
                277.8680114746094,
                277.8680114746094
            ],
            "translation" : [
                -0.19781970977783203,
                3.4680492877960205,
                -2.218017101287842
            ]
        },
        {
            "mesh" : 2,
            "name" : "Curve.002",
            "rotation" : [
                0.7069607973098755,
                0,
                0,
                0.7072526812553406
            ],
            "scale" : [
                277.86798095703125,
                277.8680114746094,
                277.8680114746094
            ],
            "translation" : [
                6.21146297454834,
                4.09816837310791,
                -2.2182772159576416
            ]
        },
        {
            "name" : "Sun",
            "rotation" : [
                0.36255091428756714,
                -0.3872571885585785,
                0.04404674470424652,
                0.8465510010719299
            ],
            "translation" : [
                0,
                6.395010948181152,
                13.735116958618164
            ]
        }
    ],
    "materials" : [
        {
            "doubleSided" : true,
            "name" : "SVGMat",
            "pbrMetallicRoughness" : {}
        }
    ],
    "meshes" : [
        {
            "name" : "Curve",
            "primitives" : [
                {
                    "attributes" : {
                        "POSITION" : 0,
                        "NORMAL" : 1
                    },
                    "indices" : 2,
                    "material" : 0
                }
            ]
        },
        {
            "name" : "Curve.001",
            "primitives" : [
                {
                    "attributes" : {
                        "POSITION" : 3,
                        "NORMAL" : 4
                    },
                    "indices" : 5,
                    "material" : 0
                }
            ]
        },
        {
            "name" : "Curve.002",
            "primitives" : [
                {
                    "attributes" : {
                        "POSITION" : 6,
                        "NORMAL" : 7
                    },
                    "indices" : 8,
                    "material" : 0
                }
            ]
        }
    ],
    "accessors" : [
        {
            "bufferView" : 0,
            "componentType" : 5126,
            "count" : 268,
            "max" : [
                0.0054734256118535995,
                0.0024999999441206455,
                0.005472305230796337
            ],
            "min" : [
                -0.00927426852285862,
                -0.0024999999441206455,
                -0.00927240401506424
            ],
            "type" : "VEC3"
        },
        {
            "bufferView" : 1,
            "componentType" : 5126,
            "count" : 268,
            "type" : "VEC3"
        },
        {
            "bufferView" : 2,
            "componentType" : 5123,
            "count" : 708,
            "type" : "SCALAR"
        },
        {
            "bufferView" : 3,
            "componentType" : 5126,
            "count" : 12,
            "max" : [
                0.007267367094755173,
                0.0024999999441206455,
                0.004583355039358139
            ],
            "min" : [
                -0.007261727005243301,
                -0.0024999999441206455,
                -0.009166710078716278
            ],
            "type" : "VEC3"
        },
        {
            "bufferView" : 4,
            "componentType" : 5126,
            "count" : 12,
            "type" : "VEC3"
        },
        {
            "bufferView" : 5,
            "componentType" : 5123,
            "count" : 24,
            "type" : "SCALAR"
        },
        {
            "bufferView" : 6,
            "componentType" : 5126,
            "count" : 20,
            "max" : [
                0.0070957764983177185,
                0.0024999999441206455,
                0.006851046811789274
            ],
            "min" : [
                -0.00714544951915741,
                -0.0024999999441206455,
                -0.006899017840623856
            ],
            "type" : "VEC3"
        },
        {
            "bufferView" : 7,
            "componentType" : 5126,
            "count" : 20,
            "type" : "VEC3"
        },
        {
            "bufferView" : 8,
            "componentType" : 5123,
            "count" : 48,
            "type" : "SCALAR"
        }
    ],
    "bufferViews" : [
        {
            "buffer" : 0,
            "byteLength" : 3216,
            "byteOffset" : 0
        },
        {
            "buffer" : 0,
            "byteLength" : 3216,
            "byteOffset" : 3216
        },
        {
            "buffer" : 0,
            "byteLength" : 1416,
            "byteOffset" : 6432
        },
        {
            "buffer" : 0,
            "byteLength" : 144,
            "byteOffset" : 7848
        },
        {
            "buffer" : 0,
            "byteLength" : 144,
            "byteOffset" : 7992
        },
        {
            "buffer" : 0,
            "byteLength" : 48,
            "byteOffset" : 8136
        },
        {
            "buffer" : 0,
            "byteLength" : 240,
            "byteOffset" : 8184
        },
        {
            "buffer" : 0,
            "byteLength" : 240,
            "byteOffset" : 8424
        },
        {
            "buffer" : 0,
            "byteLength" : 96,
            "byteOffset" : 8664
        }
    ],
    "buffers" : [
        {
            "byteLength" : 8760,
            "uri" : "data:application/octet-stream;base64,"
        }
    ]
}
